<svg width="32" height="32" viewBox="0 0 32 32" fill="none" xmlns="http://www.w3.org/2000/svg">
<rect width="32" height="32" fill="#0F86F5"/>
<path fill-rule="evenodd" clip-rule="evenodd" d="M12.2799 8.0081C14.3931 8.11295 16.0293 9.60777 17.5387 11.0717C19.0672 12.5541 20.6777 14.1509 20.7916 16.2633C20.91 18.4589 19.7697 20.5509 18.13 22.0387C16.5549 23.4679 14.4184 23.927 12.2799 23.9864C10.0626 24.0481 7.61845 23.9612 6.09055 22.3737C4.58372 20.808 4.77886 18.4219 4.84698 16.2633C4.91212 14.1994 5.07495 12.0656 6.46457 10.5222C7.92611 8.89899 10.0828 7.89908 12.2799 8.0081Z" fill="#4BA4F7"/>
<path fill-rule="evenodd" clip-rule="evenodd" d="M14.6799 8.0081C16.7931 8.11295 18.4293 9.60777 19.9387 11.0717C21.4672 12.5541 23.0777 14.1509 23.1916 16.2633C23.31 18.4589 22.1697 20.5509 20.53 22.0387C18.9549 23.4679 16.8184 23.927 14.6799 23.9864C12.4626 24.0481 10.0184 23.9612 8.49055 22.3737C6.98372 20.808 7.17886 18.4219 7.24698 16.2633C7.31212 14.1994 7.47495 12.0656 8.86457 10.5222C10.3261 8.89899 12.4828 7.89908 14.6799 8.0081Z" fill="#8AC4FA"/>
<path fill-rule="evenodd" clip-rule="evenodd" d="M17.0799 8.0081C19.1931 8.11295 20.8293 9.60777 22.3387 11.0717C23.8672 12.5541 25.4777 14.1509 25.5916 16.2633C25.71 18.4589 24.5697 20.5509 22.93 22.0387C21.3549 23.4679 19.2184 23.927 17.0799 23.9864C14.8626 24.0481 12.4184 23.9612 10.8905 22.3737C9.38372 20.808 9.57886 18.4219 9.64698 16.2633C9.71212 14.1994 9.87495 12.0656 11.2646 10.5222C12.7261 8.89899 14.8828 7.89908 17.0799 8.0081Z" fill="#CAE4FD"/>
<path fill-rule="evenodd" clip-rule="evenodd" d="M19.4799 8.0081C21.5931 8.11295 23.2293 9.60777 24.7387 11.0717C26.2672 12.5541 27.8777 14.1509 27.9916 16.2633C28.11 18.4589 26.9697 20.5509 25.33 22.0387C23.7549 23.4679 21.6184 23.927 19.4799 23.9864C17.2626 24.0481 14.8184 23.9612 13.2905 22.3737C11.7837 20.808 11.9789 18.4219 12.047 16.2633C12.1121 14.1994 12.275 12.0656 13.6646 10.5222C15.1261 8.89899 17.2828 7.89908 19.4799 8.0081Z" fill="white"/>
</svg>
