<svg width="1080" height="1080" viewBox="0 0 1080 1080" fill="none" xmlns="http://www.w3.org/2000/svg">
<rect width="1080" height="1080" fill="#0F86F5"/>
<path fill-rule="evenodd" clip-rule="evenodd" d="M414.446 270.273C485.768 273.812 540.988 324.262 591.93 373.669C643.517 423.702 697.871 477.594 701.715 548.887C705.711 622.988 667.229 693.592 611.887 743.807C558.726 792.043 486.621 807.535 414.446 809.543C339.612 811.624 257.123 808.691 205.556 755.111C154.701 702.27 161.286 621.741 163.586 548.887C165.784 479.229 171.28 407.213 218.179 355.125C267.506 300.341 340.294 266.594 414.446 270.273Z" fill="#4BA4F7"/>
<path fill-rule="evenodd" clip-rule="evenodd" d="M495.446 270.273C566.768 273.812 621.988 324.262 672.93 373.669C724.517 423.702 778.871 477.594 782.715 548.887C786.711 622.988 748.229 693.592 692.887 743.807C639.726 792.043 567.621 807.535 495.446 809.543C420.612 811.624 338.123 808.691 286.556 755.111C235.701 702.27 242.286 621.741 244.586 548.887C246.784 479.229 252.28 407.213 299.179 355.125C348.506 300.341 421.294 266.594 495.446 270.273Z" fill="#8AC4FA"/>
<path fill-rule="evenodd" clip-rule="evenodd" d="M576.446 270.273C647.768 273.812 702.988 324.262 753.93 373.669C805.517 423.702 859.871 477.594 863.715 548.887C867.711 622.988 829.229 693.592 773.887 743.807C720.726 792.043 648.621 807.535 576.446 809.543C501.612 811.624 419.123 808.691 367.556 755.111C316.701 702.27 323.286 621.741 325.586 548.887C327.784 479.229 333.28 407.213 380.179 355.125C429.506 300.341 502.294 266.594 576.446 270.273Z" fill="#CAE4FD"/>
<path fill-rule="evenodd" clip-rule="evenodd" d="M657.446 270.273C728.768 273.812 783.988 324.262 834.93 373.669C886.517 423.702 940.871 477.594 944.715 548.887C948.711 622.988 910.229 693.592 854.887 743.807C801.726 792.043 729.621 807.535 657.446 809.543C582.612 811.624 500.123 808.691 448.556 755.111C397.701 702.27 404.286 621.741 406.586 548.887C408.784 479.229 414.28 407.213 461.179 355.125C510.506 300.341 583.294 266.594 657.446 270.273Z" fill="white"/>
</svg>
